<svg xmlns="http://www.w3.org/2000/svg" xmlns:xlink="http://www.w3.org/1999/xlink" width="1040" height="928.4"><rect width="1040" height="928.4" rx="5" ry="5" class="a"/><svg y="0%" x="0%"><circle cx="20" cy="20" r="6" fill="#ff5f58"/><circle cx="40" cy="20" r="6" fill="#ffbd2e"/><circle cx="60" cy="20" r="6" fill="#18c132"/></svg><svg height="868.4" viewBox="0 0 100 86.84" width="1000" x="15" xmlns="http://www.w3.org/2000/svg" xmlns:xlink="http://www.w3.org/1999/xlink" y="50"><style>@keyframes l{0%{transform:translateX(0)}.2%{transform:translateX(-100px)}2.5%{transform:translateX(-200px)}26%{transform:translateX(-300px)}29.1%{transform:translateX(-400px)}62.7%{transform:translateX(-800px)}63.2%{transform:translateX(-900px)}85%{transform:translateX(-1000px)}85.4%{transform:translateX(-1100px)}85.8%{transform:translateX(-1200px)}86.4%{transform:translateX(-1300px)}86.9%{transform:translateX(-1400px)}88%{transform:translateX(-1500px)}88.6%{transform:translateX(-1600px)}89%{transform:translateX(-1700px)}89.3%{transform:translateX(-1800px)}89.7%{transform:translateX(-1900px)}90.1%{transform:translateX(-2000px)}90.6%{transform:translateX(-2300px)}}.a{fill:#282d35}.f{font-weight:700}.f,.g,.h,.i{fill:#b9c0cb;white-space:pre}.h,.i{fill:#a8cc8c}.i{fill:#dbab79}</style><g font-family="Monaco,Consolas,Menlo,'Bitstream Vera Sans Mono','Powerline Symbols',monospace" font-size="1.67"><defs><symbol id="1"><text y="1.67" class="f">──</text><text x="3.006" y="1.67" class="f">scenario</text><text x="12.024" y="1.67" class="f">&apos;multi-vhost&apos;</text><text x="26.052" y="1.67" class="f">—</text><text x="28.056" y="1.67" class="f">source:</text><text x="36.072" y="1.67" class="f">nginx</text><text x="44.088" y="1.67" class="g">zion:</text><text x="50.1" y="1.67" class="g">ghcr.io/fabriziosalmi/zion:0.7.5</text></symbol><symbol id="2"><text y="1.67" class="f">──</text><text x="3.006" y="1.67" class="f">backends:</text><text x="13.026" y="1.67" class="f">alpha</text><text x="19.038" y="1.67" class="f">beta</text><text x="24.048" y="1.67" class="f">default</text><text x="32.064" y="1.67" class="f">health</text><text x="39.078" y="1.67" class="f">legacy</text><text x="46.092" y="1.67" class="f">users</text></symbol><symbol id="3"><text y="1.67" class="f">──</text><text x="3.006" y="1.67" class="f">nginx</text><text x="9.018" y="1.67" class="f">(the</text><text x="14.028" y="1.67" class="f">original)</text><text x="24.048" y="1.67" class="f">on</text><text x="27.054" y="1.67" class="f">:18080</text></symbol><symbol id="4"><text y="1.67" class="f">──</text><text x="3.006" y="1.67" class="f">zion</text><text x="8.016" y="1.67" class="f">import</text><text x="15.03" y="1.67" class="f">nginx</text><text x="21.042" y="1.67" class="f">—</text><text x="23.046" y="1.67" class="f">converting</text><text x="34.068" y="1.67" class="f">the</text><text x="38.076" y="1.67" class="f">SAME</text><text x="43.086" y="1.67" class="f">config</text><text x="50.1" y="1.67" class="f">(findings</text><text x="60.12" y="1.67" class="f">below)</text></symbol><symbol id="5"><text x="2.004" y="1.67" class="g">Unable</text><text x="9.018" y="1.67" class="g">to</text><text x="12.024" y="1.67" class="g">find</text><text x="17.034" y="1.67" class="g">image</text><text x="23.046" y="1.67" class="g">&apos;ghcr.io/fabriziosalmi/zion:0.7.5&apos;</text><text x="58.116" y="1.67" class="g">locally</text></symbol><symbol id="6"><text x="2.004" y="1.67" class="g">0.7.5:</text><text x="9.018" y="1.67" class="g">Pulling</text><text x="17.034" y="1.67" class="g">from</text><text x="22.044" y="1.67" class="g">fabriziosalmi/zion</text></symbol><symbol id="7"><text x="2.004" y="1.67" class="g">57bd9065667a:</text><text x="16.032" y="1.67" class="g">Pulling</text><text x="24.048" y="1.67" class="g">fs</text><text x="27.054" y="1.67" class="g">layer</text></symbol><symbol id="8"><text x="2.004" y="1.67" class="g">fa11eee75935:</text><text x="16.032" y="1.67" class="g">Pulling</text><text x="24.048" y="1.67" class="g">fs</text><text x="27.054" y="1.67" class="g">layer</text></symbol><symbol id="9"><text x="2.004" y="1.67" class="g">abe5ff549d62:</text><text x="16.032" y="1.67" class="g">Pulling</text><text x="24.048" y="1.67" class="g">fs</text><text x="27.054" y="1.67" class="g">layer</text></symbol><symbol id="10"><text x="2.004" y="1.67" class="g">abe5ff549d62:</text><text x="16.032" y="1.67" class="g">Download</text><text x="25.05" y="1.67" class="g">complete</text></symbol><symbol id="11"><text x="2.004" y="1.67" class="g">57bd9065667a:</text><text x="16.032" y="1.67" class="g">Download</text><text x="25.05" y="1.67" class="g">complete</text></symbol><symbol id="12"><text x="2.004" y="1.67" class="g">fa11eee75935:</text><text x="16.032" y="1.67" class="g">Download</text><text x="25.05" y="1.67" class="g">complete</text></symbol><symbol id="13"><text x="2.004" y="1.67" class="g">abe5ff549d62:</text><text x="16.032" y="1.67" class="g">Pull</text><text x="21.042" y="1.67" class="g">complete</text></symbol><symbol id="14"><text x="2.004" y="1.67" class="g">57bd9065667a:</text><text x="16.032" y="1.67" class="g">Pull</text><text x="21.042" y="1.67" class="g">complete</text></symbol><symbol id="15"><text x="2.004" y="1.67" class="g">fa11eee75935:</text><text x="16.032" y="1.67" class="g">Pull</text><text x="21.042" y="1.67" class="g">complete</text></symbol><symbol id="16"><text x="2.004" y="1.67" class="g">Digest:</text><text x="10.02" y="1.67" class="g">sha256:bab70b0ae984caa637d5eefaa18b6726e329f92859905d1b4674c55dbe2310fd</text></symbol><symbol id="17"><text x="2.004" y="1.67" class="g">Status:</text><text x="10.02" y="1.67" class="g">Downloaded</text><text x="21.042" y="1.67" class="g">newer</text><text x="27.054" y="1.67" class="g">image</text><text x="33.066" y="1.67" class="g">for</text><text x="37.074" y="1.67" class="g">ghcr.io/fabriziosalmi/zion:0.7.5</text></symbol><symbol id="18"><text x="2.004" y="1.67" class="g">zion</text><text x="7.014" y="1.67" class="g">import</text><text x="14.028" y="1.67" class="g">nginx:</text><text x="21.042" y="1.67" class="g">22</text><text x="24.048" y="1.67" class="g">findings</text><text x="33.066" y="1.67" class="g">—</text><text x="35.07" y="1.67" class="g">18</text><text x="38.076" y="1.67" class="g">convert,</text><text x="47.094" y="1.67" class="g">3</text><text x="49.098" y="1.67" class="g">partial,</text><text x="58.116" y="1.67" class="g">0</text><text x="60.12" y="1.67" class="g">auto,</text><text x="66.132" y="1.67" class="g">1</text><text x="68.136" y="1.67" class="g">unsupported</text></symbol><symbol id="19"><text x="3.006" y="1.67" class="g">line</text><text x="9.018" y="1.67" class="g">status</text><text x="22.044" y="1.67" class="g">directive</text><text x="46.092" y="1.67" class="g">detail</text></symbol><symbol id="20"><text x="6.012" y="1.67" class="g">6</text><text x="9.018" y="1.67" class="g">partial</text><text x="22.044" y="1.67" class="g">server</text><text x="46.092" y="1.67" class="g">4</text><text x="48.096" y="1.67" class="g">plain-HTTP</text><text x="59.118" y="1.67" class="g">server(s)</text><text x="69.138" y="1.67" class="g">(line</text><text x="75.15" y="1.67" class="g">6,</text><text x="78.156" y="1.67" class="g">15,</text><text x="82.164" y="1.67" class="g">23,</text><text x="86.172" y="1.67" class="g">39):</text><text x="91.182" y="1.67" class="g">Zion</text><text x="96.192" y="1.67" class="g">alwa</text></symbol><symbol id="21"><text y="1.67" class="g">ys</text><text x="3.006" y="1.67" class="g">terminates</text><text x="14.028" y="1.67" class="g">TLS</text><text x="18.036" y="1.67" class="g">—</text><text x="20.04" y="1.67" class="g">port</text><text x="25.05" y="1.67" class="g">80</text><text x="28.056" y="1.67" class="g">serves</text><text x="35.07" y="1.67" class="g">only</text><text x="40.08" y="1.67" class="g">the</text><text x="44.088" y="1.67" class="g">redirect</text><text x="53.106" y="1.67" class="g">to</text><text x="56.112" y="1.67" class="g">HTTPS;</text><text x="63.126" y="1.67" class="g">review</text><text x="70.14" y="1.67" class="g">the</text><text x="74.148" y="1.67" class="g">synthesized</text><text x="86.172" y="1.67" class="g">certificate</text><text x="98.196" y="1.67" class="g">pa</text></symbol><symbol id="22"><text y="1.67" class="g">ths</text><text x="4.008" y="1.67" class="g">before</text><text x="11.022" y="1.67" class="g">deploying</text></symbol><symbol id="23"><text x="5.01" y="1.67" class="g">11</text><text x="9.018" y="1.67" class="g">unsupported</text><text x="22.044" y="1.67" class="g">proxy_set_header</text><text x="46.092" y="1.67" class="g">Host</text><text x="51.102" y="1.67" class="g">$host</text><text x="57.114" y="1.67" class="g">—</text><text x="59.118" y="1.67" class="g">Zion</text><text x="64.128" y="1.67" class="g">re-derives</text><text x="75.15" y="1.67" class="g">Host</text><text x="80.16" y="1.67" class="g">from</text><text x="85.17" y="1.67" class="g">the</text><text x="89.178" y="1.67" class="g">upstream</text><text x="98.196" y="1.67" class="g">au</text></symbol><symbol id="24"><text y="1.67" class="g">thority;</text><text x="9.018" y="1.67" class="g">the</text><text x="13.026" y="1.67" class="g">original</text><text x="22.044" y="1.67" class="g">host</text><text x="27.054" y="1.67" class="g">reaches</text><text x="35.07" y="1.67" class="g">the</text><text x="39.078" y="1.67" class="g">backend</text><text x="47.094" y="1.67" class="g">as</text><text x="50.1" y="1.67" class="g">X-Forwarded-Host</text></symbol><symbol id="25"><text x="5.01" y="1.67" class="g">31</text><text x="9.018" y="1.67" class="g">partial</text><text x="22.044" y="1.67" class="g">location</text><text x="46.092" y="1.67" class="g">prefix</text><text x="53.106" y="1.67" class="g">route</text><text x="59.118" y="1.67" class="g">&apos;/v1/users/{*rest}&apos;</text><text x="79.158" y="1.67" class="g">—</text><text x="81.162" y="1.67" class="g">nginx&apos;s</text><text x="89.178" y="1.67" class="g">string-pref</text></symbol><symbol id="26"><text y="1.67" class="g">ix</text><text x="3.006" y="1.67" class="g">&apos;/v1/users&apos;</text><text x="15.03" y="1.67" class="g">also</text><text x="20.04" y="1.67" class="g">matched</text><text x="28.056" y="1.67" class="g">e.g.</text><text x="33.066" y="1.67" class="g">&apos;/v1/usersxyz&apos;;</text><text x="49.098" y="1.67" class="g">Zion</text><text x="54.108" y="1.67" class="g">matches</text><text x="62.124" y="1.67" class="g">on</text><text x="65.13" y="1.67" class="g">path</text><text x="70.14" y="1.67" class="g">segments</text></symbol><symbol id="27"><text x="5.01" y="1.67" class="g">39</text><text x="9.018" y="1.67" class="g">partial</text><text x="22.044" y="1.67" class="g">server</text><text x="46.092" y="1.67" class="g">default-vhost</text><text x="60.12" y="1.67" class="g">routes</text><text x="67.134" y="1.67" class="g">become</text><text x="74.148" y="1.67" class="g">hostless</text><text x="83.166" y="1.67" class="g">SHARED</text><text x="90.18" y="1.67" class="g">routes:</text><text x="98.196" y="1.67" class="g">ng</text></symbol><symbol id="28"><text y="1.67" class="g">inx</text><text x="4.008" y="1.67" class="g">served</text><text x="11.022" y="1.67" class="g">them</text><text x="16.032" y="1.67" class="g">only</text><text x="21.042" y="1.67" class="g">for</text><text x="25.05" y="1.67" class="g">unmatched</text><text x="35.07" y="1.67" class="g">Hosts,</text><text x="42.084" y="1.67" class="g">but</text><text x="46.092" y="1.67" class="g">Zion&apos;s</text><text x="53.106" y="1.67" class="g">shared</text><text x="60.12" y="1.67" class="g">layer</text><text x="66.132" y="1.67" class="g">is</text><text x="69.138" y="1.67" class="g">also</text><text x="74.148" y="1.67" class="g">the</text><text x="78.156" y="1.67" class="g">path-miss</text><text x="88.176" y="1.67" class="g">fallback</text><text x="97.194" y="1.67" class="g">und</text></symbol><symbol id="29"><text y="1.67" class="g">er</text><text x="3.006" y="1.67" class="g">every</text><text x="9.018" y="1.67" class="g">named</text><text x="15.03" y="1.67" class="g">host</text><text x="20.04" y="1.67" class="g">—</text><text x="22.044" y="1.67" class="g">internal</text><text x="31.062" y="1.67" class="g">endpoints</text><text x="41.082" y="1.67" class="g">parked</text><text x="48.096" y="1.67" class="g">here</text><text x="53.106" y="1.67" class="g">become</text><text x="60.12" y="1.67" class="g">reachable</text><text x="70.14" y="1.67" class="g">via</text><text x="74.148" y="1.67" class="g">all</text><text x="78.156" y="1.67" class="g">hostnames;</text><text x="89.178" y="1.67" class="g">review</text></symbol><symbol id="30"><text y="1.67" class="f">──</text><text x="3.006" y="1.67" class="f">self-signed</text><text x="15.03" y="1.67" class="f">cert</text><text x="20.04" y="1.67" class="f">at</text><text x="23.046" y="1.67" class="f">the</text><text x="27.054" y="1.67" class="f">placeholder</text><text x="39.078" y="1.67" class="f">paths</text><text x="45.09" y="1.67" class="f">the</text><text x="49.098" y="1.67" class="f">importer</text><text x="58.116" y="1.67" class="f">emitted</text></symbol><symbol id="31"><text y="1.67" class="f">──</text><text x="3.006" y="1.67" class="f">zion</text><text x="8.016" y="1.67" class="f">(the</text><text x="13.026" y="1.67" class="f">converted</text><text x="23.046" y="1.67" class="f">config)</text><text x="31.062" y="1.67" class="f">on</text><text x="34.068" y="1.67" class="f">:18443</text></symbol><symbol id="32"><text y="1.67" class="f">──</text><text x="3.006" y="1.67" class="f">replaying</text><text x="13.026" y="1.67" class="f">the</text><text x="17.034" y="1.67" class="f">request</text><text x="25.05" y="1.67" class="f">corpus</text><text x="32.064" y="1.67" class="f">against</text><text x="40.08" y="1.67" class="f">BOTH</text><text x="45.09" y="1.67" class="f">instances</text></symbol><symbol id="33"><text x="2.004" y="1.67" class="g">HOST</text><text x="25.05" y="1.67" class="g">PATH</text><text x="48.096" y="1.67" class="g">nginx</text><text x="59.118" y="1.67" class="g">zion</text><text x="70.14" y="1.67" class="g">VERDICT</text></symbol><symbol id="34"><text x="2.004" y="1.67" class="g">alpha.example.com</text><text x="25.05" y="1.67" class="g">/</text><text x="48.096" y="1.67" class="g">alpha</text><text x="59.118" y="1.67" class="g">alpha</text><text x="70.14" y="1.67" class="h">identical</text></symbol><symbol id="35"><text x="2.004" y="1.67" class="g">alpha.example.com</text><text x="25.05" y="1.67" class="g">/some/deep/path</text><text x="48.096" y="1.67" class="g">alpha</text><text x="59.118" y="1.67" class="g">alpha</text><text x="70.14" y="1.67" class="h">identical</text></symbol><symbol id="36"><text x="2.004" y="1.67" class="g">ALPHA.EXAMPLE.COM</text><text x="25.05" y="1.67" class="g">/case-folding</text><text x="48.096" y="1.67" class="g">alpha</text><text x="59.118" y="1.67" class="g">alpha</text><text x="70.14" y="1.67" class="h">identical</text></symbol><symbol id="37"><text x="2.004" y="1.67" class="g">beta.example.com</text><text x="25.05" y="1.67" class="g">/</text><text x="48.096" y="1.67" class="g">beta</text><text x="59.118" y="1.67" class="g">beta</text><text x="70.14" y="1.67" class="h">identical</text></symbol><symbol id="38"><text x="2.004" y="1.67" class="g">unknown.example.com</text><text x="25.05" y="1.67" class="g">/</text><text x="48.096" y="1.67" class="g">default</text><text x="59.118" y="1.67" class="g">default</text><text x="70.14" y="1.67" class="h">identical</text></symbol><symbol id="39"><text x="2.004" y="1.67" class="g">api.example.com</text><text x="25.05" y="1.67" class="g">/status</text><text x="48.096" y="1.67" class="g">health</text><text x="59.118" y="1.67" class="g">health</text><text x="70.14" y="1.67" class="h">identical</text></symbol><symbol id="40"><text x="2.004" y="1.67" class="g">api.example.com</text><text x="25.05" y="1.67" class="g">/v1/users</text><text x="48.096" y="1.67" class="g">users</text><text x="59.118" y="1.67" class="g">users</text><text x="70.14" y="1.67" class="h">identical</text></symbol><symbol id="41"><text x="2.004" y="1.67" class="g">api.example.com</text><text x="25.05" y="1.67" class="g">/v1/users/42/profile</text><text x="48.096" y="1.67" class="g">users</text><text x="59.118" y="1.67" class="g">users</text><text x="70.14" y="1.67" class="h">identical</text></symbol><symbol id="42"><text x="2.004" y="1.67" class="g">api.example.com</text><text x="25.05" y="1.67" class="g">/v1/orders</text><text x="48.096" y="1.67" class="g">legacy</text><text x="59.118" y="1.67" class="g">legacy</text><text x="70.14" y="1.67" class="h">identical</text></symbol><symbol id="43"><text x="2.004" y="1.67" class="g">api.example.com</text><text x="25.05" y="1.67" class="g">/other</text><text x="48.096" y="1.67" class="g">404</text><text x="59.118" y="1.67" class="g">default</text><text x="70.14" y="1.67" class="i">documented</text><text x="81.162" y="1.67" class="i">divergence</text><text x="92.184" y="1.67" class="i">(flagged</text></symbol><symbol id="44"><text x="1.002" y="1.67" class="i">by</text><text x="4.008" y="1.67" class="i">the</text><text x="8.016" y="1.67" class="i">import</text><text x="15.03" y="1.67" class="i">report)</text></symbol><symbol id="45"><text x="2.004" y="1.67" class="g">api.example.com</text><text x="25.05" y="1.67" class="g">/v1/users999</text><text x="48.096" y="1.67" class="g">users</text><text x="59.118" y="1.67" class="g">legacy</text><text x="70.14" y="1.67" class="i">documented</text><text x="81.162" y="1.67" class="i">divergence</text><text x="92.184" y="1.67" class="i">(flagged</text></symbol><symbol id="46"><text y="1.67" class="f">──</text><text x="3.006" y="1.67" class="f">result</text></symbol><symbol id="a"><path fill="transparent" d="M0 0h100v41H0z"/></symbol><symbol id="b"><path fill="#6f7683" d="M0 0h1.102v2.171H0z"/></symbol></defs><path class="a" d="M0 0h100v86.84H0z"/><g style="animation-duration:5.950689s;animation-iteration-count:infinite;animation-name:l;animation-timing-function:steps(1,end)"><svg width="2400"><svg><use xlink:href="#a"/><use xlink:href="#b" x="-.004"/></svg><svg x="100"><use xlink:href="#a"/><use xlink:href="#b" x="-.004" y="4.317"/><use xlink:href="#1" y="2.171"/></svg><svg x="200"><use xlink:href="#a"/><use xlink:href="#b" x="-.004" y="8.659"/><use xlink:href="#1" y="2.171"/><use xlink:href="#2" y="6.513"/></svg><svg x="300"><use xlink:href="#a"/><use xlink:href="#b" x="-.004" y="13.001"/><use xlink:href="#1" y="2.171"/><use xlink:href="#2" y="6.513"/><use xlink:href="#3" y="10.855"/></svg><svg x="400"><use xlink:href="#a"/><use xlink:href="#b" x="-.004" y="17.343"/><use xlink:href="#1" y="2.171"/><use xlink:href="#2" y="6.513"/><use xlink:href="#3" y="10.855"/><use xlink:href="#4" y="15.197"/></svg><svg x="500"><use xlink:href="#a"/><use xlink:href="#b" x="-.004" y="45.566"/><use xlink:href="#1" y="2.171"/><use xlink:href="#2" y="6.513"/><use xlink:href="#3" y="10.855"/><use xlink:href="#4" y="15.197"/><use xlink:href="#5" y="17.368"/><use xlink:href="#6" y="19.539"/><use xlink:href="#7" y="21.71"/><use xlink:href="#8" y="23.881"/><use xlink:href="#9" y="26.052"/><use xlink:href="#10" y="28.223"/><use xlink:href="#11" y="30.394"/><use xlink:href="#12" y="32.565"/><use xlink:href="#13" y="34.736"/><use xlink:href="#14" y="36.907"/><use xlink:href="#15" y="39.078"/><use xlink:href="#16" y="41.249"/><use xlink:href="#17" y="43.42"/></svg><svg x="600"><use xlink:href="#a"/><use xlink:href="#b" x="-.004" y="65.105"/><use xlink:href="#1" y="2.171"/><use xlink:href="#2" y="6.513"/><use xlink:href="#3" y="10.855"/><use xlink:href="#4" y="15.197"/><use xlink:href="#5" y="17.368"/><use xlink:href="#6" y="19.539"/><use xlink:href="#7" y="21.71"/><use xlink:href="#8" y="23.881"/><use xlink:href="#9" y="26.052"/><use xlink:href="#10" y="28.223"/><use xlink:href="#11" y="30.394"/><use xlink:href="#12" y="32.565"/><use xlink:href="#13" y="34.736"/><use xlink:href="#14" y="36.907"/><use xlink:href="#15" y="39.078"/><use xlink:href="#16" y="41.249"/><use xlink:href="#17" y="43.42"/><use xlink:href="#18" y="45.591"/><use xlink:href="#19" y="47.762"/><use xlink:href="#20" y="49.933"/><use xlink:href="#21" y="52.104"/><use xlink:href="#22" y="54.275"/><use xlink:href="#23" y="56.446"/><use xlink:href="#24" y="58.617"/><use xlink:href="#25" y="60.788"/><use xlink:href="#26" y="62.959"/></svg><svg x="700"><use xlink:href="#a"/><use xlink:href="#b" x="-.004" y="71.618"/><use xlink:href="#1" y="2.171"/><use xlink:href="#2" y="6.513"/><use xlink:href="#3" y="10.855"/><use xlink:href="#4" y="15.197"/><use xlink:href="#5" y="17.368"/><use xlink:href="#6" y="19.539"/><use xlink:href="#7" y="21.71"/><use xlink:href="#8" y="23.881"/><use xlink:href="#9" y="26.052"/><use xlink:href="#10" y="28.223"/><use xlink:href="#11" y="30.394"/><use xlink:href="#12" y="32.565"/><use xlink:href="#13" y="34.736"/><use xlink:href="#14" y="36.907"/><use xlink:href="#15" y="39.078"/><use xlink:href="#16" y="41.249"/><use xlink:href="#17" y="43.42"/><use xlink:href="#18" y="45.591"/><use xlink:href="#19" y="47.762"/><use xlink:href="#20" y="49.933"/><use xlink:href="#21" y="52.104"/><use xlink:href="#22" y="54.275"/><use xlink:href="#23" y="56.446"/><use xlink:href="#24" y="58.617"/><use xlink:href="#25" y="60.788"/><use xlink:href="#26" y="62.959"/><use xlink:href="#27" y="65.13"/><use xlink:href="#28" y="67.301"/><use xlink:href="#29" y="69.472"/></svg><svg x="800"><use xlink:href="#a"/><use xlink:href="#b" x="-.004" y="75.96"/><use xlink:href="#1" y="2.171"/><use xlink:href="#2" y="6.513"/><use xlink:href="#3" y="10.855"/><use xlink:href="#4" y="15.197"/><use xlink:href="#5" y="17.368"/><use xlink:href="#6" y="19.539"/><use xlink:href="#7" y="21.71"/><use xlink:href="#8" y="23.881"/><use xlink:href="#9" y="26.052"/><use xlink:href="#10" y="28.223"/><use xlink:href="#11" y="30.394"/><use xlink:href="#12" y="32.565"/><use xlink:href="#13" y="34.736"/><use xlink:href="#14" y="36.907"/><use xlink:href="#15" y="39.078"/><use xlink:href="#16" y="41.249"/><use xlink:href="#17" y="43.42"/><use xlink:href="#18" y="45.591"/><use xlink:href="#19" y="47.762"/><use xlink:href="#20" y="49.933"/><use xlink:href="#21" y="52.104"/><use xlink:href="#22" y="54.275"/><use xlink:href="#23" y="56.446"/><use xlink:href="#24" y="58.617"/><use xlink:href="#25" y="60.788"/><use xlink:href="#26" y="62.959"/><use xlink:href="#27" y="65.13"/><use xlink:href="#28" y="67.301"/><use xlink:href="#29" y="69.472"/><use xlink:href="#30" y="73.814"/></svg><svg x="900"><use xlink:href="#a"/><use xlink:href="#b" x="-.004" y="80.302"/><use xlink:href="#1" y="2.171"/><use xlink:href="#2" y="6.513"/><use xlink:href="#3" y="10.855"/><use xlink:href="#4" y="15.197"/><use xlink:href="#5" y="17.368"/><use xlink:href="#6" y="19.539"/><use xlink:href="#7" y="21.71"/><use xlink:href="#8" y="23.881"/><use xlink:href="#9" y="26.052"/><use xlink:href="#10" y="28.223"/><use xlink:href="#11" y="30.394"/><use xlink:href="#12" y="32.565"/><use xlink:href="#13" y="34.736"/><use xlink:href="#14" y="36.907"/><use xlink:href="#15" y="39.078"/><use xlink:href="#16" y="41.249"/><use xlink:href="#17" y="43.42"/><use xlink:href="#18" y="45.591"/><use xlink:href="#19" y="47.762"/><use xlink:href="#20" y="49.933"/><use xlink:href="#21" y="52.104"/><use xlink:href="#22" y="54.275"/><use xlink:href="#23" y="56.446"/><use xlink:href="#24" y="58.617"/><use xlink:href="#25" y="60.788"/><use xlink:href="#26" y="62.959"/><use xlink:href="#27" y="65.13"/><use xlink:href="#28" y="67.301"/><use xlink:href="#29" y="69.472"/><use xlink:href="#30" y="73.814"/><use xlink:href="#31" y="78.156"/></svg><svg x="1000"><use xlink:href="#a"/><use xlink:href="#b" x="-.004" y="86.815"/><use xlink:href="#1" y="2.171"/><use xlink:href="#2" y="6.513"/><use xlink:href="#3" y="10.855"/><use xlink:href="#4" y="15.197"/><use xlink:href="#5" y="17.368"/><use xlink:href="#6" y="19.539"/><use xlink:href="#7" y="21.71"/><use xlink:href="#8" y="23.881"/><use xlink:href="#9" y="26.052"/><use xlink:href="#10" y="28.223"/><use xlink:href="#11" y="30.394"/><use xlink:href="#12" y="32.565"/><use xlink:href="#13" y="34.736"/><use xlink:href="#14" y="36.907"/><use xlink:href="#15" y="39.078"/><use xlink:href="#16" y="41.249"/><use xlink:href="#17" y="43.42"/><use xlink:href="#18" y="45.591"/><use xlink:href="#19" y="47.762"/><use xlink:href="#20" y="49.933"/><use xlink:href="#21" y="52.104"/><use xlink:href="#22" y="54.275"/><use xlink:href="#23" y="56.446"/><use xlink:href="#24" y="58.617"/><use xlink:href="#25" y="60.788"/><use xlink:href="#26" y="62.959"/><use xlink:href="#27" y="65.13"/><use xlink:href="#28" y="67.301"/><use xlink:href="#29" y="69.472"/><use xlink:href="#30" y="73.814"/><use xlink:href="#31" y="78.156"/><use xlink:href="#32" y="82.498"/><use xlink:href="#33" y="84.669"/></svg><svg x="1100"><use xlink:href="#a"/><use xlink:href="#b" x="-.004" y="86.815"/><use xlink:href="#1"/><use xlink:href="#2" y="4.342"/><use xlink:href="#3" y="8.684"/><use xlink:href="#4" y="13.026"/><use xlink:href="#5" y="15.197"/><use xlink:href="#6" y="17.368"/><use xlink:href="#7" y="19.539"/><use xlink:href="#8" y="21.71"/><use xlink:href="#9" y="23.881"/><use xlink:href="#10" y="26.052"/><use xlink:href="#11" y="28.223"/><use xlink:href="#12" y="30.394"/><use xlink:href="#13" y="32.565"/><use xlink:href="#14" y="34.736"/><use xlink:href="#15" y="36.907"/><use xlink:href="#16" y="39.078"/><use xlink:href="#17" y="41.249"/><use xlink:href="#18" y="43.42"/><use xlink:href="#19" y="45.591"/><use xlink:href="#20" y="47.762"/><use xlink:href="#21" y="49.933"/><use xlink:href="#22" y="52.104"/><use xlink:href="#23" y="54.275"/><use xlink:href="#24" y="56.446"/><use xlink:href="#25" y="58.617"/><use xlink:href="#26" y="60.788"/><use xlink:href="#27" y="62.959"/><use xlink:href="#28" y="65.13"/><use xlink:href="#29" y="67.301"/><use xlink:href="#30" y="71.643"/><use xlink:href="#31" y="75.985"/><use xlink:href="#32" y="80.327"/><use xlink:href="#33" y="82.498"/><use xlink:href="#34" y="84.669"/></svg><svg x="1200"><use xlink:href="#a"/><use xlink:href="#b" x="-.004" y="86.815"/><use xlink:href="#2" y="2.171"/><use xlink:href="#3" y="6.513"/><use xlink:href="#4" y="10.855"/><use xlink:href="#5" y="13.026"/><use xlink:href="#6" y="15.197"/><use xlink:href="#7" y="17.368"/><use xlink:href="#8" y="19.539"/><use xlink:href="#9" y="21.71"/><use xlink:href="#10" y="23.881"/><use xlink:href="#11" y="26.052"/><use xlink:href="#12" y="28.223"/><use xlink:href="#13" y="30.394"/><use xlink:href="#14" y="32.565"/><use xlink:href="#15" y="34.736"/><use xlink:href="#16" y="36.907"/><use xlink:href="#17" y="39.078"/><use xlink:href="#18" y="41.249"/><use xlink:href="#19" y="43.42"/><use xlink:href="#20" y="45.591"/><use xlink:href="#21" y="47.762"/><use xlink:href="#22" y="49.933"/><use xlink:href="#23" y="52.104"/><use xlink:href="#24" y="54.275"/><use xlink:href="#25" y="56.446"/><use xlink:href="#26" y="58.617"/><use xlink:href="#27" y="60.788"/><use xlink:href="#28" y="62.959"/><use xlink:href="#29" y="65.13"/><use xlink:href="#30" y="69.472"/><use xlink:href="#31" y="73.814"/><use xlink:href="#32" y="78.156"/><use xlink:href="#33" y="80.327"/><use xlink:href="#34" y="82.498"/><use xlink:href="#35" y="84.669"/></svg><svg x="1300"><use xlink:href="#a"/><use xlink:href="#b" x="-.004" y="86.815"/><use xlink:href="#2"/><use xlink:href="#3" y="4.342"/><use xlink:href="#4" y="8.684"/><use xlink:href="#5" y="10.855"/><use xlink:href="#6" y="13.026"/><use xlink:href="#7" y="15.197"/><use xlink:href="#8" y="17.368"/><use xlink:href="#9" y="19.539"/><use xlink:href="#10" y="21.71"/><use xlink:href="#11" y="23.881"/><use xlink:href="#12" y="26.052"/><use xlink:href="#13" y="28.223"/><use xlink:href="#14" y="30.394"/><use xlink:href="#15" y="32.565"/><use xlink:href="#16" y="34.736"/><use xlink:href="#17" y="36.907"/><use xlink:href="#18" y="39.078"/><use xlink:href="#19" y="41.249"/><use xlink:href="#20" y="43.42"/><use xlink:href="#21" y="45.591"/><use xlink:href="#22" y="47.762"/><use xlink:href="#23" y="49.933"/><use xlink:href="#24" y="52.104"/><use xlink:href="#25" y="54.275"/><use xlink:href="#26" y="56.446"/><use xlink:href="#27" y="58.617"/><use xlink:href="#28" y="60.788"/><use xlink:href="#29" y="62.959"/><use xlink:href="#30" y="67.301"/><use xlink:href="#31" y="71.643"/><use xlink:href="#32" y="75.985"/><use xlink:href="#33" y="78.156"/><use xlink:href="#34" y="80.327"/><use xlink:href="#35" y="82.498"/><use xlink:href="#36" y="84.669"/></svg><svg x="1400"><use xlink:href="#a"/><use xlink:href="#b" x="-.004" y="86.815"/><use xlink:href="#3" y="2.171"/><use xlink:href="#4" y="6.513"/><use xlink:href="#5" y="8.684"/><use xlink:href="#6" y="10.855"/><use xlink:href="#7" y="13.026"/><use xlink:href="#8" y="15.197"/><use xlink:href="#9" y="17.368"/><use xlink:href="#10" y="19.539"/><use xlink:href="#11" y="21.71"/><use xlink:href="#12" y="23.881"/><use xlink:href="#13" y="26.052"/><use xlink:href="#14" y="28.223"/><use xlink:href="#15" y="30.394"/><use xlink:href="#16" y="32.565"/><use xlink:href="#17" y="34.736"/><use xlink:href="#18" y="36.907"/><use xlink:href="#19" y="39.078"/><use xlink:href="#20" y="41.249"/><use xlink:href="#21" y="43.42"/><use xlink:href="#22" y="45.591"/><use xlink:href="#23" y="47.762"/><use xlink:href="#24" y="49.933"/><use xlink:href="#25" y="52.104"/><use xlink:href="#26" y="54.275"/><use xlink:href="#27" y="56.446"/><use xlink:href="#28" y="58.617"/><use xlink:href="#29" y="60.788"/><use xlink:href="#30" y="65.13"/><use xlink:href="#31" y="69.472"/><use xlink:href="#32" y="73.814"/><use xlink:href="#33" y="75.985"/><use xlink:href="#34" y="78.156"/><use xlink:href="#35" y="80.327"/><use xlink:href="#36" y="82.498"/><use xlink:href="#37" y="84.669"/></svg><svg x="1500"><use xlink:href="#a"/><use xlink:href="#b" x="-.004" y="86.815"/><use xlink:href="#3"/><use xlink:href="#4" y="4.342"/><use xlink:href="#5" y="6.513"/><use xlink:href="#6" y="8.684"/><use xlink:href="#7" y="10.855"/><use xlink:href="#8" y="13.026"/><use xlink:href="#9" y="15.197"/><use xlink:href="#10" y="17.368"/><use xlink:href="#11" y="19.539"/><use xlink:href="#12" y="21.71"/><use xlink:href="#13" y="23.881"/><use xlink:href="#14" y="26.052"/><use xlink:href="#15" y="28.223"/><use xlink:href="#16" y="30.394"/><use xlink:href="#17" y="32.565"/><use xlink:href="#18" y="34.736"/><use xlink:href="#19" y="36.907"/><use xlink:href="#20" y="39.078"/><use xlink:href="#21" y="41.249"/><use xlink:href="#22" y="43.42"/><use xlink:href="#23" y="45.591"/><use xlink:href="#24" y="47.762"/><use xlink:href="#25" y="49.933"/><use xlink:href="#26" y="52.104"/><use xlink:href="#27" y="54.275"/><use xlink:href="#28" y="56.446"/><use xlink:href="#29" y="58.617"/><use xlink:href="#30" y="62.959"/><use xlink:href="#31" y="67.301"/><use xlink:href="#32" y="71.643"/><use xlink:href="#33" y="73.814"/><use xlink:href="#34" y="75.985"/><use xlink:href="#35" y="78.156"/><use xlink:href="#36" y="80.327"/><use xlink:href="#37" y="82.498"/><use xlink:href="#38" y="84.669"/></svg><svg x="1600"><use xlink:href="#a"/><use xlink:href="#b" x="-.004" y="86.815"/><use xlink:href="#4" y="2.171"/><use xlink:href="#5" y="4.342"/><use xlink:href="#6" y="6.513"/><use xlink:href="#7" y="8.684"/><use xlink:href="#8" y="10.855"/><use xlink:href="#9" y="13.026"/><use xlink:href="#10" y="15.197"/><use xlink:href="#11" y="17.368"/><use xlink:href="#12" y="19.539"/><use xlink:href="#13" y="21.71"/><use xlink:href="#14" y="23.881"/><use xlink:href="#15" y="26.052"/><use xlink:href="#16" y="28.223"/><use xlink:href="#17" y="30.394"/><use xlink:href="#18" y="32.565"/><use xlink:href="#19" y="34.736"/><use xlink:href="#20" y="36.907"/><use xlink:href="#21" y="39.078"/><use xlink:href="#22" y="41.249"/><use xlink:href="#23" y="43.42"/><use xlink:href="#24" y="45.591"/><use xlink:href="#25" y="47.762"/><use xlink:href="#26" y="49.933"/><use xlink:href="#27" y="52.104"/><use xlink:href="#28" y="54.275"/><use xlink:href="#29" y="56.446"/><use xlink:href="#30" y="60.788"/><use xlink:href="#31" y="65.13"/><use xlink:href="#32" y="69.472"/><use xlink:href="#33" y="71.643"/><use xlink:href="#34" y="73.814"/><use xlink:href="#35" y="75.985"/><use xlink:href="#36" y="78.156"/><use xlink:href="#37" y="80.327"/><use xlink:href="#38" y="82.498"/><use xlink:href="#39" y="84.669"/></svg><svg x="1700"><use xlink:href="#a"/><use xlink:href="#b" x="-.004" y="86.815"/><use xlink:href="#4"/><use xlink:href="#5" y="2.171"/><use xlink:href="#6" y="4.342"/><use xlink:href="#7" y="6.513"/><use xlink:href="#8" y="8.684"/><use xlink:href="#9" y="10.855"/><use xlink:href="#10" y="13.026"/><use xlink:href="#11" y="15.197"/><use xlink:href="#12" y="17.368"/><use xlink:href="#13" y="19.539"/><use xlink:href="#14" y="21.71"/><use xlink:href="#15" y="23.881"/><use xlink:href="#16" y="26.052"/><use xlink:href="#17" y="28.223"/><use xlink:href="#18" y="30.394"/><use xlink:href="#19" y="32.565"/><use xlink:href="#20" y="34.736"/><use xlink:href="#21" y="36.907"/><use xlink:href="#22" y="39.078"/><use xlink:href="#23" y="41.249"/><use xlink:href="#24" y="43.42"/><use xlink:href="#25" y="45.591"/><use xlink:href="#26" y="47.762"/><use xlink:href="#27" y="49.933"/><use xlink:href="#28" y="52.104"/><use xlink:href="#29" y="54.275"/><use xlink:href="#30" y="58.617"/><use xlink:href="#31" y="62.959"/><use xlink:href="#32" y="67.301"/><use xlink:href="#33" y="69.472"/><use xlink:href="#34" y="71.643"/><use xlink:href="#35" y="73.814"/><use xlink:href="#36" y="75.985"/><use xlink:href="#37" y="78.156"/><use xlink:href="#38" y="80.327"/><use xlink:href="#39" y="82.498"/><use xlink:href="#40" y="84.669"/></svg><svg x="1800"><use xlink:href="#a"/><use xlink:href="#b" x="-.004" y="86.815"/><use xlink:href="#5"/><use xlink:href="#6" y="2.171"/><use xlink:href="#7" y="4.342"/><use xlink:href="#8" y="6.513"/><use xlink:href="#9" y="8.684"/><use xlink:href="#10" y="10.855"/><use xlink:href="#11" y="13.026"/><use xlink:href="#12" y="15.197"/><use xlink:href="#13" y="17.368"/><use xlink:href="#14" y="19.539"/><use xlink:href="#15" y="21.71"/><use xlink:href="#16" y="23.881"/><use xlink:href="#17" y="26.052"/><use xlink:href="#18" y="28.223"/><use xlink:href="#19" y="30.394"/><use xlink:href="#20" y="32.565"/><use xlink:href="#21" y="34.736"/><use xlink:href="#22" y="36.907"/><use xlink:href="#23" y="39.078"/><use xlink:href="#24" y="41.249"/><use xlink:href="#25" y="43.42"/><use xlink:href="#26" y="45.591"/><use xlink:href="#27" y="47.762"/><use xlink:href="#28" y="49.933"/><use xlink:href="#29" y="52.104"/><use xlink:href="#30" y="56.446"/><use xlink:href="#31" y="60.788"/><use xlink:href="#32" y="65.13"/><use xlink:href="#33" y="67.301"/><use xlink:href="#34" y="69.472"/><use xlink:href="#35" y="71.643"/><use xlink:href="#36" y="73.814"/><use xlink:href="#37" y="75.985"/><use xlink:href="#38" y="78.156"/><use xlink:href="#39" y="80.327"/><use xlink:href="#40" y="82.498"/><use xlink:href="#41" y="84.669"/></svg><svg x="1900"><use xlink:href="#a"/><use xlink:href="#b" x="-.004" y="86.815"/><use xlink:href="#6"/><use xlink:href="#7" y="2.171"/><use xlink:href="#8" y="4.342"/><use xlink:href="#9" y="6.513"/><use xlink:href="#10" y="8.684"/><use xlink:href="#11" y="10.855"/><use xlink:href="#12" y="13.026"/><use xlink:href="#13" y="15.197"/><use xlink:href="#14" y="17.368"/><use xlink:href="#15" y="19.539"/><use xlink:href="#16" y="21.71"/><use xlink:href="#17" y="23.881"/><use xlink:href="#18" y="26.052"/><use xlink:href="#19" y="28.223"/><use xlink:href="#20" y="30.394"/><use xlink:href="#21" y="32.565"/><use xlink:href="#22" y="34.736"/><use xlink:href="#23" y="36.907"/><use xlink:href="#24" y="39.078"/><use xlink:href="#25" y="41.249"/><use xlink:href="#26" y="43.42"/><use xlink:href="#27" y="45.591"/><use xlink:href="#28" y="47.762"/><use xlink:href="#29" y="49.933"/><use xlink:href="#30" y="54.275"/><use xlink:href="#31" y="58.617"/><use xlink:href="#32" y="62.959"/><use xlink:href="#33" y="65.13"/><use xlink:href="#34" y="67.301"/><use xlink:href="#35" y="69.472"/><use xlink:href="#36" y="71.643"/><use xlink:href="#37" y="73.814"/><use xlink:href="#38" y="75.985"/><use xlink:href="#39" y="78.156"/><use xlink:href="#40" y="80.327"/><use xlink:href="#41" y="82.498"/><use xlink:href="#42" y="84.669"/></svg><svg x="2000"><use xlink:href="#a"/><use xlink:href="#b" x="-.004" y="86.815"/><use xlink:href="#8"/><use xlink:href="#9" y="2.171"/><use xlink:href="#10" y="4.342"/><use xlink:href="#11" y="6.513"/><use xlink:href="#12" y="8.684"/><use xlink:href="#13" y="10.855"/><use xlink:href="#14" y="13.026"/><use xlink:href="#15" y="15.197"/><use xlink:href="#16" y="17.368"/><use xlink:href="#17" y="19.539"/><use xlink:href="#18" y="21.71"/><use xlink:href="#19" y="23.881"/><use xlink:href="#20" y="26.052"/><use xlink:href="#21" y="28.223"/><use xlink:href="#22" y="30.394"/><use xlink:href="#23" y="32.565"/><use xlink:href="#24" y="34.736"/><use xlink:href="#25" y="36.907"/><use xlink:href="#26" y="39.078"/><use xlink:href="#27" y="41.249"/><use xlink:href="#28" y="43.42"/><use xlink:href="#29" y="45.591"/><use xlink:href="#30" y="49.933"/><use xlink:href="#31" y="54.275"/><use xlink:href="#32" y="58.617"/><use xlink:href="#33" y="60.788"/><use xlink:href="#34" y="62.959"/><use xlink:href="#35" y="65.13"/><use xlink:href="#36" y="67.301"/><use xlink:href="#37" y="69.472"/><use xlink:href="#38" y="71.643"/><use xlink:href="#39" y="73.814"/><use xlink:href="#40" y="75.985"/><use xlink:href="#41" y="78.156"/><use xlink:href="#42" y="80.327"/><use xlink:href="#43" y="82.498"/><use xlink:href="#44" y="84.669"/></svg><svg x="2100"><use xlink:href="#a"/><use xlink:href="#b" x="-.004" y="86.815"/><use xlink:href="#10"/><use xlink:href="#11" y="2.171"/><use xlink:href="#12" y="4.342"/><use xlink:href="#13" y="6.513"/><use xlink:href="#14" y="8.684"/><use xlink:href="#15" y="10.855"/><use xlink:href="#16" y="13.026"/><use xlink:href="#17" y="15.197"/><use xlink:href="#18" y="17.368"/><use xlink:href="#19" y="19.539"/><use xlink:href="#20" y="21.71"/><use xlink:href="#21" y="23.881"/><use xlink:href="#22" y="26.052"/><use xlink:href="#23" y="28.223"/><use xlink:href="#24" y="30.394"/><use xlink:href="#25" y="32.565"/><use xlink:href="#26" y="34.736"/><use xlink:href="#27" y="36.907"/><use xlink:href="#28" y="39.078"/><use xlink:href="#29" y="41.249"/><use xlink:href="#30" y="45.591"/><use xlink:href="#31" y="49.933"/><use xlink:href="#32" y="54.275"/><use xlink:href="#33" y="56.446"/><use xlink:href="#34" y="58.617"/><use xlink:href="#35" y="60.788"/><use xlink:href="#36" y="62.959"/><use xlink:href="#37" y="65.13"/><use xlink:href="#38" y="67.301"/><use xlink:href="#39" y="69.472"/><use xlink:href="#40" y="71.643"/><use xlink:href="#41" y="73.814"/><use xlink:href="#42" y="75.985"/><use xlink:href="#43" y="78.156"/><use xlink:href="#44" y="80.327"/><use xlink:href="#45" y="82.498"/><use xlink:href="#44" y="84.669"/></svg><svg x="2200"><use xlink:href="#a"/><use xlink:href="#b" x="-.004" y="86.815"/><use xlink:href="#12"/><use xlink:href="#13" y="2.171"/><use xlink:href="#14" y="4.342"/><use xlink:href="#15" y="6.513"/><use xlink:href="#16" y="8.684"/><use xlink:href="#17" y="10.855"/><use xlink:href="#18" y="13.026"/><use xlink:href="#19" y="15.197"/><use xlink:href="#20" y="17.368"/><use xlink:href="#21" y="19.539"/><use xlink:href="#22" y="21.71"/><use xlink:href="#23" y="23.881"/><use xlink:href="#24" y="26.052"/><use xlink:href="#25" y="28.223"/><use xlink:href="#26" y="30.394"/><use xlink:href="#27" y="32.565"/><use xlink:href="#28" y="34.736"/><use xlink:href="#29" y="36.907"/><use xlink:href="#30" y="41.249"/><use xlink:href="#31" y="45.591"/><use xlink:href="#32" y="49.933"/><use xlink:href="#33" y="52.104"/><use xlink:href="#34" y="54.275"/><use xlink:href="#35" y="56.446"/><use xlink:href="#36" y="58.617"/><use xlink:href="#37" y="60.788"/><use xlink:href="#38" y="62.959"/><use xlink:href="#39" y="65.13"/><use xlink:href="#40" y="67.301"/><use xlink:href="#41" y="69.472"/><use xlink:href="#42" y="71.643"/><use xlink:href="#43" y="73.814"/><use xlink:href="#44" y="75.985"/><use xlink:href="#45" y="78.156"/><use xlink:href="#44" y="80.327"/><use xlink:href="#46" y="84.669"/></svg><svg x="2300"><use xlink:href="#a"/><use xlink:href="#b" x="-.004" y="86.815"/><use xlink:href="#14"/><use xlink:href="#15" y="2.171"/><use xlink:href="#16" y="4.342"/><use xlink:href="#17" y="6.513"/><use xlink:href="#18" y="8.684"/><use xlink:href="#19" y="10.855"/><use xlink:href="#20" y="13.026"/><use xlink:href="#21" y="15.197"/><use xlink:href="#22" y="17.368"/><use xlink:href="#23" y="19.539"/><use xlink:href="#24" y="21.71"/><use xlink:href="#25" y="23.881"/><use xlink:href="#26" y="26.052"/><use xlink:href="#27" y="28.223"/><use xlink:href="#28" y="30.394"/><use xlink:href="#29" y="32.565"/><use xlink:href="#30" y="36.907"/><use xlink:href="#31" y="41.249"/><use xlink:href="#32" y="45.591"/><use xlink:href="#33" y="47.762"/><use xlink:href="#34" y="49.933"/><use xlink:href="#35" y="52.104"/><use xlink:href="#36" y="54.275"/><use xlink:href="#37" y="56.446"/><use xlink:href="#38" y="58.617"/><use xlink:href="#39" y="60.788"/><use xlink:href="#40" y="62.959"/><use xlink:href="#41" y="65.13"/><use xlink:href="#42" y="67.301"/><use xlink:href="#43" y="69.472"/><use xlink:href="#44" y="71.643"/><use xlink:href="#45" y="73.814"/><use xlink:href="#44" y="75.985"/><use xlink:href="#46" y="80.327"/><text x="2.004" y="84.168" style="white-space:pre" fill="#a8cc8c" font-weight="700">PASS</text><text x="7.014" y="84.168" class="g">—</text><text x="9.018" y="84.168" class="g">9/11</text><text x="14.028" y="84.168" class="g">requests</text><text x="23.046" y="84.168" class="g">routed</text><text x="30.06" y="84.168" class="g">identically;</text><text x="2.004" y="86.339" class="g">2</text><text x="4.008" y="86.339" class="g">divergence(s)</text><text x="18.036" y="86.339" class="g">matched</text><text x="26.052" y="86.339" class="g">exactly</text><text x="34.068" y="86.339" class="g">what</text><text x="39.078" y="86.339" class="g">the</text><text x="43.086" y="86.339" class="g">import</text><text x="50.1" y="86.339" class="g">report</text><text x="57.114" y="86.339" class="g">declared.</text></svg></svg></g></g></svg></svg>